<?xml version="1.0" standalone="no"?>
<!DOCTYPE svg PUBLIC "-//W3C//DTD SVG 20010904//EN"
 "http://www.w3.org/TR/2001/REC-SVG-20010904/DTD/svg10.dtd">
<svg version="1.0" xmlns="http://www.w3.org/2000/svg"
 width="700.000000pt" height="700.000000pt" viewBox="0 0 700.000000 700.000000"
 preserveAspectRatio="xMidYMid meet">
<metadata>
Created by potrace 1.14, written by Peter Selinger 2001-2017
</metadata>
<g transform="translate(0.000000,700.000000) scale(0.100000,-0.100000)"
fill="#000000" stroke="none">
<path d="M0 3500 l0 -3500 3500 0 3500 0 0 3500 0 3500 -3500 0 -3500 0 0
-3500z m2598 1223 c-3 -10 -159 -561 -348 -1225 l-344 -1208 -178 0 c-119 0
-178 4 -178 11 0 7 564 1997 676 2387 l15 52 181 0 c167 0 180 -1 176 -17z
m609 -1986 c105 -56 145 -199 87 -316 -32 -63 -78 -97 -156 -113 -186 -39
-331 120 -277 303 15 47 61 104 101 125 65 34 181 34 245 1z m948 1 c106 -57
146 -196 91 -315 -82 -175 -370 -156 -432 29 -33 100 1 214 82 271 65 46 188
53 259 15z m950 0 c37 -20 78 -63 99 -105 25 -50 22 -159 -7 -214 -48 -91
-164 -136 -279 -109 -75 18 -141 86 -158 162 -40 178 85 312 270 288 25 -4 59
-13 75 -22z"/>
</g>
</svg>
